<svg aria-hidden="true" style="position: absolute; width: 0; height: 0; overflow: hidden;" version="1.1" xmlns="http://www.w3.org/2000/svg" xmlns:xlink="http://www.w3.org/1999/xlink">
<defs>
<symbol id="last" viewBox="0 0 32 32">
<path d="M9.724 6.276l9.724 9.724-9.724 9.724 1.885 1.885 11.609-11.609-11.609-11.609-1.885 1.885z"></path>
</symbol>
<symbol id="first" viewBox="0 0 32 32">
<path d="M20.391 4.391l-11.609 11.609 11.609 11.609 1.885-1.885-9.724-9.724 9.724-9.724-1.885-1.885z"></path>
</symbol>
<symbol id="icon-leaf" viewBox="0 0 32 32">
<path d="M22.667 10.667c-12 2.667-14.8 10.893-17.573 17.787l2.52 0.88 1.267-3.067c0.64 0.227 1.307 0.4 1.787 0.4 14.667 0 18.667-22.667 18.667-22.667-1.333 2.667-10.667 3-17.333 4.333s-9.333 7-9.333 9.667c0 2.667 2.333 5 2.333 5 4.333-12.333 17.667-12.333 17.667-12.333z"></path>
</symbol>
<symbol id="icon-search" viewBox="0 0 32 32">
<path d="M20.667 18.667h-1.053l-0.373-0.36c1.352-1.568 2.095-3.57 2.093-5.64 0-1.714-0.508-3.39-1.46-4.815s-2.306-2.536-3.89-3.192c-1.584-0.656-3.326-0.828-5.007-0.493s-3.225 1.16-4.437 2.372c-1.212 1.212-2.037 2.756-2.372 4.437s-0.163 3.424 0.493 5.007c0.656 1.584 1.767 2.937 3.192 3.89s3.101 1.46 4.815 1.46c2.147 0 4.12-0.787 5.64-2.093l0.36 0.373v1.053l6.667 6.653 1.987-1.987-6.653-6.667zM12.667 18.667c-3.32 0-6-2.68-6-6s2.68-6 6-6c3.32 0 6 2.68 6 6s-2.68 6-6 6z"></path>
</symbol>
<symbol id="icon-check">
<svg xmlns="http://www.w3.org/2000/svg" width="18" height="18" viewBox="0 0 18 18" fill="none">
<path d="M15 4.5L6.75 12.75L3 9" stroke="#E8E8E2" stroke-width="2" stroke-linecap="round" stroke-linejoin="round"/>
</svg>
</symbol>
<symbol id="icon-youtube" viewBox="0 0 32 32">
<path d="M24.24 6c-1.36-0.080-4.16-0.16-8.4-0.16h-0.56c-4.080 0-6.8 0.080-8.16 0.24-1.84 0.16-3.12 0.64-3.84 1.28-0.64 0.56-1.12 1.6-1.28 2.96-0.080 0.88-0.16 2.72-0.16 5.52v0.4c0 2.64 0.080 4.48 0.24 5.36 0.24 1.28 0.64 2.24 1.44 2.8 0.8 0.64 2.16 1.040 4.080 1.2 1.36 0.080 4.16 0.16 8.4 0.16h0.56c4.080 0 6.8-0.080 8.16-0.24 1.84-0.16 3.12-0.64 3.84-1.28 0.64-0.56 1.12-1.6 1.28-2.96 0.080-0.88 0.16-2.72 0.16-5.52v-0.4c0-2.64-0.080-4.48-0.24-5.36-0.24-1.28-0.64-2.24-1.44-2.8-0.8-0.64-2.16-1.040-4.080-1.2zM21.12 15.84l-8.8 5.28v-10.56l8.8 5.28z"></path>
</symbol>
<symbol id="icon-instagram" viewBox="0 0 32 32">
<path d="M28.718 10.756c-0.016-1.074-0.215-2.14-0.596-3.145-0.667-1.716-2.024-3.073-3.743-3.737-0.994-0.373-2.044-0.573-3.108-0.596-1.368-0.061-1.801-0.078-5.273-0.078s-3.916 0-5.274 0.078c-1.062 0.023-2.113 0.223-3.106 0.596-1.719 0.664-3.078 2.021-3.743 3.737-0.374 0.992-0.576 2.041-0.596 3.101-0.061 1.367-0.080 1.8-0.080 5.265s0 3.909 0.080 5.265c0.021 1.062 0.222 2.109 0.596 3.104 0.667 1.714 2.024 3.071 3.744 3.735 0.989 0.386 2.040 0.605 3.106 0.639 1.369 0.061 1.803 0.080 5.274 0.080s3.916 0 5.274-0.080c1.062-0.021 2.112-0.221 3.108-0.595 1.719-0.666 3.076-2.022 3.743-3.737 0.374-0.994 0.574-2.041 0.596-3.104 0.061-1.365 0.080-1.798 0.080-5.265-0.003-3.466-0.003-3.906-0.082-5.264zM15.99 22.531c-3.631 0-6.572-2.936-6.572-6.561s2.941-6.561 6.572-6.561c3.628 0 6.572 2.936 6.572 6.561s-2.944 6.561-6.572 6.561zM22.824 10.696c-0.849 0-1.532-0.684-1.532-1.53s0.684-1.53 1.532-1.53c0.846 0 1.531 0.684 1.531 1.53s-0.685 1.53-1.531 1.53z"></path>
<path d="M15.992 19.976c2.211 0 4.004-1.793 4.004-4.004s-1.793-4.004-4.004-4.004c-2.211 0-4.004 1.793-4.004 4.004s1.793 4.004 4.004 4.004z"></path>
</symbol>
<symbol id="icon-facebook" viewBox="0 0 32 32">
<path d="M19.52 4.64c0.24 0 0.48 0 0.96 0v3.6c-0.24 0-0.72 0-1.2 0s-0.96 0-1.2 0.24c-0.24 0.24-0.24 0.48-0.24 1.040 0 0.48 0 0.8 0 1.28h2.64v3.040h-2.64v13.2h-4.080v-13.28h-2.16v-3.040h2.16v-1.040c0-1.76 0.24-3.040 0.72-3.6 0.72-1.040 2.16-1.52 4.32-1.52 0.24 0.080 0.48 0.080 0.72 0.080z"></path>
</symbol>
<symbol id="icon-cart" viewBox="0 0 30 32">
<path d="M3.2 1.694c-0.449 0-0.88 0.178-1.198 0.496s-0.496 0.749-0.496 1.198c0 0.449 0.179 0.88 0.496 1.198s0.749 0.496 1.198 0.496h2.067l0.517 2.070c0.005 0.024 0.011 0.048 0.017 0.071l2.301 9.199-1.513 1.511c-2.135 2.135-0.623 5.784 2.395 5.784h14.546c0.449 0 0.88-0.178 1.198-0.496s0.496-0.749 0.496-1.198-0.178-0.88-0.496-1.198c-0.318-0.318-0.749-0.496-1.198-0.496h-14.546l1.694-1.694h11.157c0.315-0 0.623-0.088 0.89-0.253s0.484-0.402 0.624-0.683l5.082-10.165c0.129-0.258 0.19-0.545 0.177-0.833s-0.1-0.569-0.251-0.814c-0.152-0.246-0.364-0.448-0.616-0.589s-0.536-0.215-0.825-0.215h-18.161l-0.525-2.106c-0.092-0.366-0.303-0.692-0.601-0.924s-0.665-0.359-1.042-0.359h-3.388zM25.224 27.953c0 0.674-0.268 1.32-0.744 1.797s-1.123 0.744-1.797 0.744c-0.674 0-1.32-0.268-1.797-0.744s-0.744-1.123-0.744-1.797c0-0.674 0.268-1.32 0.744-1.797s1.123-0.744 1.797-0.744c0.674 0 1.32 0.268 1.797 0.744s0.744 1.123 0.744 1.797zM9.13 30.494c0.674 0 1.32-0.268 1.797-0.744s0.744-1.123 0.744-1.797c0-0.674-0.268-1.32-0.744-1.797s-1.123-0.744-1.797-0.744-1.32 0.268-1.797 0.744c-0.477 0.477-0.744 1.123-0.744 1.797s0.268 1.32 0.744 1.797 1.123 0.744 1.797 0.744z"></path>
</symbol>
<symbol id="icon-logo" viewBox="0 0 32 32">
<path d="M17.487 4.624c-0.463-0.704-1.086-1.289-1.817-1.707-2.011-1.153-4.601-0.951-6.992 0.388-4.439 2.487-7.345 7.161-7.345 12.695 0 7.387 5.347 13.351 12.329 14.48 0.763 0.123 1.543 0.187 2.337 0.187 1.938 0.007 3.857-0.372 5.647-1.113s3.414-1.832 4.779-3.207 2.443-3.008 3.17-4.804c0.728-1.796 1.092-3.718 1.070-5.656-0.031-2.576-1.064-5.737-2.697-8.264-1.627-2.517-4.128-4.811-7.236-4.781-1.517 0.003-2.553 0.837-3.245 1.784v-0.001zM26.36 10.15c-0.557-0.090-1.123-0.104-1.684-0.044l-1.547-2.6-2.291 1.36 1.189 2c-0.498 0.234-0.973 0.513-1.42 0.833-0.008-0.026-0.016-0.052-0.024-0.077-0.356-1.080-1.044-1.967-1.961-2.848l0.005-0.027c0.092-0.431 0.239-0.987 0.459-1.527 0.497-1.221 1.075-1.716 1.653-1.716h0.015c1.721-0.019 3.515 1.303 4.975 3.561 0.227 0.351 0.437 0.712 0.632 1.083l-0.001 0.001zM18.145 14.146c-0.44 0.011-0.892 0.060-1.333 0.156-0.36-0.602-0.842-1.123-1.416-1.527-1.053-0.74-2.496-1.107-4.056-0.524-0.143-0.082-0.287-0.163-0.432-0.241l4.311-4.225-1.867-1.904-5.113 5.012c-1.080-0.313-2.089-0.425-2.996-0.3 1.043-2.094 2.696-3.824 4.74-4.963 1.819-1.019 3.383-0.963 4.361-0.401 0.933 0.535 1.708 1.748 1.513 3.916l-0.060 0.671 0.504 0.447c1.096 0.969 1.552 1.596 1.749 2.195 0.139 0.42 0.184 0.928 0.095 1.689zM14.399 15.486c-1.139 0.953-1.903 2.291-2.347 3.736l-3.965-4.353-1.972 1.797 5.451 5.984c-0.007 1.589 0.197 3.216 0.493 4.687-2.36-0.81-4.407-2.34-5.852-4.373s-2.218-4.469-2.208-6.964c0-1.387 0.385-2.143 0.839-2.473 0.428-0.315 1.368-0.572 3.293 0.139 0.696 0.257 1.501 0.652 2.423 1.225l0.669 0.416 0.688-0.387c0.831-0.467 1.465-0.301 1.952 0.040 0.213 0.149 0.396 0.336 0.536 0.527zM16.752 27.976l9.723-10.716-1.975-1.792-3.909 4.308 0.009-1.352-2.667-0.019-0.031 4.333-3.311 3.649c-0.251-1.361-0.4-2.824-0.352-4.196 0.085-2.34 1.020-4.263 2.403-5.024 0.573-0.316 1.585-0.44 2.385-0.299l1.187 0.207 0.327-1.159c0.171-0.604 0.623-1.251 1.329-1.827 0.717-0.579 1.551-0.996 2.445-1.221 1.068-0.261 1.979-0.125 2.579 0.288 0.524 0.36 1.051 1.096 1.1 2.605v0.024l0.004 0.213c0.013 3.056-1.145 6.001-3.237 8.229s-4.958 3.569-8.009 3.747z"></path>
</symbol>
<symbol id="icon-discount" viewBox="0 0 32 32">
<path fill="#6d8434" style="fill: var(--color1, #6d8434)" d="M32 16c0 8.837-7.163 16-16 16s-16-7.163-16-16c0-8.837 7.163-16 16-16s16 7.163 16 16z"></path>
<path fill="#fafafa" style="fill: var(--color2, #fafafa)" d="M26.947 20.862l-0.233 0.63-4.293-1.582 0.233-0.63 0.354 0.131 0.005-0.012c-0.15-0.24-0.274-0.626-0.099-1.1 0.29-0.787 1.118-1.143 2.127-0.771s1.406 1.18 1.116 1.966c-0.175 0.475-0.508 0.693-0.802 0.769l-0.004 0.012 1.597 0.588zM23.389 18.597c-0.19 0.516 0.118 0.992 0.797 1.242 0.685 0.252 1.223 0.089 1.413-0.427 0.204-0.553-0.192-1.033-0.793-1.254s-1.213-0.113-1.418 0.439zM25.093 22.529c0.11-0.149 0.326-0.229 0.513-0.093s0.171 0.363 0.061 0.512c-0.117 0.16-0.325 0.238-0.511 0.102s-0.18-0.361-0.062-0.521zM24.845 21.936l-0.397 0.542-2.641-1.93 0.397-0.542 2.64 1.93zM21.828 23.303c-0.555 0.274-1.144 0.585-1.641-0.017-0.4-0.483-0.234-1.126 0.379-1.63 0.815-0.671 1.48-0.58 1.945-0.068l-0.504 0.415c-0.249-0.251-0.559-0.385-1.093 0.054-0.361 0.297-0.367 0.601-0.236 0.759 0.261 0.316 0.582 0.092 1.027-0.124 0.477-0.236 1.086-0.604 1.559-0.032 0.342 0.414 0.25 1.046-0.382 1.567-0.687 0.565-1.319 0.464-1.716 0.053l0.504-0.415c0.197 0.169 0.464 0.29 0.869-0.044 0.311-0.256 0.381-0.513 0.235-0.69-0.212-0.257-0.51-0.045-0.945 0.173zM18.35 25.162c0.132 0.307 0.462 0.62 1.007 0.435 0.624-0.212 0.709-0.836 0.51-1.417s-0.641-1.026-1.271-0.812c-0.545 0.185-0.617 0.628-0.523 0.982l-0.636 0.216c-0.196-0.731 0.176-1.445 0.982-1.719 0.927-0.315 1.755 0.148 2.085 1.117s-0.042 1.839-0.963 2.152c-0.806 0.274-1.509-0.062-1.828-0.738l0.637-0.216zM15.606 23.245c1.022 0.062 1.598 0.809 1.537 1.825s-0.725 1.687-1.747 1.625-1.598-0.81-1.537-1.825c0.062-1.016 0.725-1.687 1.747-1.625zM15.573 23.795c-0.639-0.039-1.002 0.445-1.042 1.116-0.041 0.677 0.261 1.196 0.9 1.235s1.001-0.439 1.042-1.116c0.041-0.671-0.261-1.196-0.9-1.235zM10.771 25.275l-0.605-0.293 1.431-2.941 0.604 0.293-0.185 0.38 0.011 0.005c0.268-0.155 0.685-0.237 1.191 0.009 0.547 0.266 0.825 0.791 0.497 1.465l-0.988 2.032-0.61-0.297 0.905-1.859c0.193-0.397 0.149-0.731-0.266-0.932-0.466-0.226-0.903-0.090-1.116 0.348l-0.871 1.79zM7.833 22.957c-0.405-0.453-0.464-1.045 0.095-1.543l1.685-1.504 0.453 0.505-1.542 1.377c-0.33 0.294-0.416 0.62-0.108 0.963 0.346 0.386 0.802 0.425 1.165 0.101l1.485-1.326 0.449 0.501-2.439 2.178-0.449-0.5 0.315-0.281-0.008-0.010c-0.307 0.042-0.724-0.041-1.1-0.46zM6.447 19.376l0.253 0.56 1.617-0.728c0.339-0.153 0.306-0.334 0.103-0.72l0.502-0.226c0.085 0.109 0.163 0.236 0.237 0.399 0.221 0.49 0.121 0.858-0.509 1.141l-1.669 0.752 0.196 0.431-0.502 0.226-0.195-0.432-0.94 0.423-0.279-0.618 0.939-0.423-0.253-0.56 0.501-0.226zM4.494 12.647l0.146-0.656 4.467 0.994-0.146 0.656-0.368-0.082-0.003 0.013c0.181 0.217 0.355 0.584 0.245 1.077-0.182 0.818-0.955 1.283-2.004 1.049s-1.552-0.981-1.37-1.799c0.11-0.493 0.411-0.755 0.692-0.869l0.003-0.012-1.662-0.37zM8.322 14.417c0.12-0.537-0.25-0.967-0.956-1.124-0.713-0.158-1.223 0.076-1.343 0.613-0.128 0.574 0.329 0.997 0.953 1.136s1.218-0.050 1.346-0.625zM6.102 10.748c-0.089 0.163-0.293 0.27-0.495 0.161s-0.218-0.336-0.129-0.499c0.095-0.174 0.291-0.279 0.493-0.17s0.226 0.334 0.131 0.508zM6.428 11.303l0.321-0.59 2.875 1.559-0.321 0.59-2.875-1.559zM9.241 9.534c0.514-0.344 1.057-0.73 1.629-0.198 0.46 0.427 0.379 1.086-0.163 1.666-0.72 0.772-1.391 0.769-1.919 0.322l0.445-0.477c0.279 0.216 0.605 0.308 1.076-0.197 0.318-0.341 0.285-0.643 0.135-0.782-0.3-0.279-0.59-0.015-1.002 0.257-0.443 0.297-0.997 0.741-1.541 0.236-0.394-0.366-0.385-1.004 0.174-1.603 0.607-0.651 1.246-0.633 1.694-0.277l-0.445 0.477c-0.219-0.141-0.498-0.227-0.856 0.157-0.275 0.294-0.31 0.558-0.142 0.715 0.244 0.227 0.511-0.023 0.914-0.295z"></path>
<path fill="#fafafa" style="fill: var(--color2, #fafafa)" d="M12.396 7.25c-0.172-0.286-0.542-0.552-1.057-0.294-0.59 0.294-0.589 0.924-0.314 1.473s0.774 0.929 1.37 0.632c0.515-0.258 0.526-0.707 0.386-1.044l0.601-0.3c0.293 0.698 0.021 1.456-0.74 1.836-0.876 0.437-1.758 0.092-2.218-0.823-0.459-0.915-0.208-1.828 0.662-2.262 0.762-0.38 1.504-0.143 1.911 0.483l-0.601 0.3zM15.372 8.765c-1.021 0.075-1.693-0.589-1.767-1.604s0.492-1.769 1.514-1.843c1.021-0.075 1.693 0.589 1.767 1.604s-0.492 1.769-1.514 1.843zM15.331 8.217c0.638-0.046 0.933-0.575 0.884-1.245-0.050-0.677-0.418-1.15-1.057-1.104s-0.933 0.569-0.884 1.245c0.050 0.67 0.419 1.15 1.057 1.104zM19.919 6.106l0.638 0.21-1.027 3.105-0.638-0.21 0.133-0.401-0.012-0.004c-0.244 0.189-0.647 0.326-1.182 0.149-0.577-0.19-0.923-0.675-0.688-1.386l0.709-2.145 0.644 0.213-0.649 1.963c-0.139 0.419-0.051 0.745 0.387 0.889 0.492 0.163 0.907-0.031 1.060-0.493l0.625-1.89zM23.143 8.004c0.461 0.396 0.596 0.975 0.108 1.542l-1.473 1.713-0.515-0.442 1.348-1.567c0.288-0.335 0.331-0.669-0.019-0.969-0.394-0.338-0.851-0.316-1.168 0.052l-1.298 1.509-0.51-0.437 2.132-2.479 0.51 0.437-0.276 0.32 0.010 0.009c0.298-0.082 0.723-0.055 1.15 0.311zM24.983 11.342l-0.326-0.521-1.504 0.939c-0.315 0.196-0.258 0.372-0.005 0.727l-0.467 0.291c-0.108-0.107-0.203-0.225-0.283-0.354l-0.005-0.008c-0.286-0.456-0.236-0.834 0.35-1.2l1.553-0.969-0.251-0.402 0.467-0.291 0.252 0.402 0.874-0.546 0.36 0.575-0.874 0.545 0.326 0.521-0.467 0.291zM17.556 14.756c-2.8 0.622-3.453 2.541-4.101 4.15l0.588 0.205 0.295-0.715c0.149 0.053 0.305 0.093 0.417 0.093 3.422 0 4.355-5.289 4.355-5.289-0.311 0.622-2.489 0.7-4.044 1.011s-2.178 1.633-2.178 2.255c0 0.622 0.544 1.167 0.544 1.167 1.011-2.878 4.123-2.878 4.123-2.878z"></path>
</symbol>
<symbol id="icon-organic-food" viewBox="0 0 32 32">
<path fill="#fdc152" style="fill: var(--color3, #fdc152)" d="M32 16c0 8.837-7.163 16-16 16s-16-7.163-16-16c0-8.837 7.163-16 16-16s16 7.163 16 16z"></path>
<path fill="#010101" style="fill: var(--color4, #010101)" d="M25.174 17.182c0.104-0.813 0.731-1.233 1.538-1.13s1.308 0.668 1.204 1.481c-0.104 0.812-0.731 1.233-1.538 1.13s-1.308-0.668-1.204-1.48zM25.611 17.237c-0.065 0.508 0.302 0.823 0.836 0.892 0.538 0.069 0.968-0.145 1.033-0.652s-0.298-0.822-0.836-0.892c-0.533-0.068-0.968 0.145-1.033 0.653zM27.137 20.516c-0.031 0.087-0.058 0.148-0.093 0.217l-0.478-0.169 0.003-0.010c0.255-0.458 0.065-0.965-0.461-1.152l-1.26-0.445 0.179-0.507 2.467 0.873-0.179 0.507-0.463-0.164-0.004 0.010c0.263 0.24 0.403 0.517 0.289 0.841zM25.82 22.819l-0.284 0.457-2.070-1.286c-0.639-0.397-0.682-0.96-0.29-1.59 0.397-0.639 0.951-0.784 1.355-0.599l-0.286 0.461c-0.223-0.078-0.468-0.013-0.692 0.348-0.238 0.383-0.185 0.686 0.215 0.935l0.27 0.167 0.005-0.009c-0.092-0.22-0.131-0.527 0.088-0.879 0.346-0.557 0.992-0.734 1.693-0.299 0.704 0.437 0.828 1.093 0.482 1.649-0.219 0.353-0.511 0.454-0.74 0.475l-0.005 0.009 0.261 0.162zM24.45 21.143c-0.23 0.37-0.124 0.743 0.346 1.035s0.851 0.221 1.081-0.149c0.249-0.4 0.075-0.791-0.338-1.047-0.409-0.254-0.84-0.238-1.089 0.162zM23.459 24.426c0.13 0.138 0.311 0.164 0.571-0.083 0.312-0.296 0.335-0.502 0.121-0.765l0.379-0.36c0.327 0.381 0.365 0.89-0.207 1.433-0.419 0.398-0.883 0.535-1.363 0.030l-0.857-0.902c-0.127-0.134-0.224-0.176-0.362-0.016l-0.177-0.186c0.058-0.118 0.114-0.186 0.188-0.256 0.208-0.197 0.375-0.215 0.588-0.065l0.007-0.007c-0.040-0.28 0.066-0.6 0.359-0.878 0.386-0.367 0.835-0.37 1.138-0.051 0.395 0.416 0.211 0.838-0.176 1.382-0.24 0.334-0.383 0.541-0.21 0.723zM22.915 22.76c-0.323 0.307-0.394 0.678-0.101 0.986l0.271 0.286c0.021-0.104 0.131-0.294 0.277-0.504 0.256-0.377 0.308-0.604 0.125-0.797-0.166-0.175-0.362-0.172-0.573 0.029zM21.582 26.621c-0.427 0.234-0.899 0.171-1.186-0.355l-0.867-1.586 0.476-0.26 0.794 1.451c0.17 0.31 0.408 0.436 0.731 0.26 0.364-0.199 0.477-0.547 0.29-0.888l-0.764-1.397 0.472-0.258 1.255 2.295-0.472 0.258-0.162-0.296-0.009 0.005c-0.023 0.246-0.163 0.556-0.558 0.772zM19.932 27.718c0.141-0.046 0.319 0.004 0.376 0.179s-0.059 0.316-0.2 0.361c-0.151 0.049-0.322 0.002-0.379-0.173s0.053-0.319 0.204-0.368zM20.049 27.217l-0.511 0.166-0.808-2.489 0.511-0.166 0.808 2.489zM16.83 26.935c0.054 0.261 0.263 0.56 0.72 0.501 0.523-0.067 0.689-0.542 0.627-1.030s-0.338-0.907-0.866-0.839c-0.457 0.059-0.585 0.395-0.568 0.687l-0.533 0.068c-0.036-0.604 0.37-1.105 1.045-1.192 0.777-0.099 1.351 0.395 1.455 1.208s-0.327 1.436-1.099 1.534c-0.676 0.086-1.172-0.289-1.314-0.869l0.533-0.068zM11.643 27.731c0.328 0.118 0.466 0.124 0.554-0.16l0.085-0.274-0.459-0.143 0.131-0.42 0.459 0.143 0.648-2.077 0.518 0.162-0.648 2.077 0.357 0.112-0.131 0.42-0.357-0.111-0.099 0.318c-0.164 0.528-0.447 0.643-0.858 0.515-0.128-0.041-0.238-0.089-0.341-0.146l0.010 0.005 0.131-0.42zM11.604 24.070c0.717 0.396 0.878 1.133 0.484 1.846s-1.102 0.971-1.82 0.575c-0.717-0.396-0.877-1.133-0.484-1.846s1.103-0.971 1.82-0.575zM11.391 24.455c-0.448-0.247-0.877-0.022-1.137 0.449-0.262 0.475-0.222 0.954 0.227 1.201s0.874 0.026 1.136-0.449c0.26-0.47 0.222-0.954-0.226-1.201z"></path>
<path fill="#010101" style="fill: var(--color4, #010101)" d="M9.701 22.675c0.594 0.564 0.562 1.318 0.001 1.908s-1.312 0.66-1.906 0.095c-0.594-0.564-0.562-1.318-0.001-1.908s1.312-0.66 1.906-0.095zM9.398 22.994c-0.371-0.353-0.843-0.243-1.213 0.147-0.374 0.393-0.456 0.866-0.085 1.219s0.839 0.246 1.213-0.147c0.371-0.389 0.456-0.866 0.085-1.219z"></path>
<path fill="#010101" style="fill: var(--color4, #010101)" d="M4.684 22.229l-0.277-0.461 3.138-1.885 0.277 0.461-0.259 0.156 0.005 0.009c0.225 0.026 0.528 0.143 0.736 0.49 0.346 0.575 0.154 1.27-0.584 1.713s-1.441 0.286-1.786-0.289c-0.208-0.347-0.178-0.664-0.078-0.885l-0.005-0.009-1.168 0.701zM7.88 21.145c-0.227-0.378-0.678-0.423-1.174-0.125-0.5 0.3-0.668 0.717-0.441 1.095 0.243 0.404 0.74 0.397 1.18 0.134s0.678-0.7 0.436-1.104zM6.849 16.375c0.032 0.819-0.517 1.337-1.331 1.368s-1.4-0.443-1.432-1.261c-0.032-0.819 0.517-1.337 1.331-1.368s1.401 0.443 1.432 1.262zM6.409 16.392c-0.020-0.512-0.434-0.762-0.971-0.741-0.542 0.021-0.931 0.302-0.911 0.814s0.429 0.762 0.971 0.741c0.538-0.020 0.931-0.302 0.911-0.814zM4.369 13.36c0.016-0.091 0.033-0.155 0.057-0.229l0.499 0.090-0.002 0.010c-0.177 0.494 0.093 0.963 0.642 1.062l1.316 0.235-0.095 0.529-2.575-0.461 0.095-0.529 0.484 0.086 0.002-0.010c-0.298-0.194-0.482-0.445-0.421-0.783zM5.286 10.885l0.206-0.497 2.252 0.933c0.695 0.288 0.828 0.836 0.544 1.522-0.288 0.695-0.811 0.928-1.239 0.811l0.208-0.501c0.232 0.041 0.464-0.063 0.627-0.456 0.172-0.416 0.071-0.707-0.364-0.888l-0.293-0.122-0.004 0.010c0.127 0.202 0.214 0.499 0.056 0.882-0.251 0.605-0.86 0.885-1.621 0.57-0.766-0.317-0.994-0.944-0.744-1.549 0.159-0.383 0.431-0.531 0.654-0.588l0.004-0.010-0.284-0.117zM6.91 12.317c0.166-0.402 0.001-0.753-0.509-0.965s-0.876-0.080-1.042 0.322c-0.18 0.435 0.054 0.793 0.503 0.979 0.445 0.184 0.868 0.099 1.048-0.336zM7.356 8.912c-0.15-0.115-0.333-0.112-0.55 0.173-0.26 0.342-0.251 0.549 0.003 0.774l-0.316 0.415c-0.384-0.324-0.502-0.82-0.024-1.447 0.35-0.46 0.786-0.669 1.34-0.247l0.99 0.754c0.147 0.112 0.249 0.138 0.36-0.042l0.204 0.155c-0.031 0.108-0.081 0.203-0.146 0.284l0.001-0.002c-0.174 0.228-0.336 0.272-0.571 0.158l-0.006 0.008c0.084 0.27 0.030 0.602-0.214 0.924-0.323 0.424-0.766 0.498-1.116 0.231-0.456-0.347-0.341-0.794-0.046-1.393 0.184-0.368 0.292-0.595 0.093-0.747zM8.158 10.47c0.27-0.355 0.281-0.732-0.057-0.99l-0.314-0.239c-0.004 0.106-0.082 0.31-0.194 0.541-0.192 0.413-0.208 0.646 0.003 0.807 0.192 0.146 0.384 0.112 0.561-0.12zM8.821 6.462c0.383-0.3 0.859-0.316 1.228 0.156l1.116 1.422-0.427 0.335-1.021-1.301c-0.218-0.278-0.474-0.363-0.764-0.136-0.326 0.256-0.381 0.618-0.141 0.924l0.983 1.253-0.423 0.332-1.615-2.058 0.423-0.332 0.209 0.266 0.008-0.006c-0.018-0.246 0.069-0.575 0.424-0.853zM10.294 5.089c-0.132 0.068-0.315 0.048-0.4-0.115s0.006-0.321 0.139-0.389c0.141-0.073 0.317-0.055 0.402 0.108s0 0.323-0.141 0.396zM10.26 5.603l0.477-0.247 1.204 2.323-0.477 0.247-1.204-2.323zM13.485 5.351c-0.096-0.249-0.351-0.51-0.792-0.378-0.505 0.151-0.592 0.648-0.451 1.119s0.481 0.839 0.991 0.686c0.442-0.132 0.512-0.485 0.448-0.77l0.515-0.154c0.134 0.59-0.184 1.151-0.836 1.347-0.75 0.225-1.398-0.169-1.633-0.954s0.089-1.47 0.834-1.693c0.652-0.196 1.204 0.093 1.438 0.643l-0.515 0.155zM18.451 3.719c-0.342-0.063-0.479-0.046-0.52 0.248l-0.040 0.284 0.477 0.067-0.061 0.436-0.477-0.067-0.301 2.155-0.538-0.075 0.301-2.155-0.37-0.052 0.061-0.436 0.37 0.052 0.046-0.33c0.077-0.548 0.337-0.708 0.763-0.648 0.132 0.018 0.246 0.050 0.35 0.085l-0.061 0.436zM19.096 7.321c-0.772-0.273-1.051-0.975-0.779-1.742s0.929-1.138 1.702-0.864c0.772 0.273 1.051 0.975 0.779 1.742s-0.929 1.138-1.701 0.864zM19.243 6.906c0.483 0.171 0.868-0.122 1.048-0.628 0.181-0.511 0.063-0.977-0.419-1.148s-0.867 0.117-1.048 0.628c-0.179 0.507-0.063 0.977 0.419 1.148z"></path>
<path fill="#010101" style="fill: var(--color4, #010101)" d="M21.17 8.361c-0.678-0.46-0.77-1.209-0.313-1.883s1.187-0.865 1.865-0.405c0.678 0.46 0.77 1.209 0.313 1.883s-1.187 0.865-1.865 0.405zM21.417 7.997c0.424 0.287 0.871 0.102 1.173-0.343 0.305-0.449 0.308-0.929-0.115-1.216s-0.868-0.107-1.173 0.343c-0.302 0.445-0.308 0.929 0.115 1.217zM26.247 8.030l0.347 0.411-2.796 2.363-0.347-0.411 0.23-0.195-0.006-0.008c-0.226 0.010-0.544-0.057-0.805-0.365-0.433-0.512-0.355-1.229 0.302-1.784s1.376-0.513 1.809-0.001c0.261 0.309 0.282 0.627 0.219 0.861l0.006 0.008 1.040-0.879zM23.267 9.612c0.284 0.336 0.737 0.309 1.179-0.065 0.446-0.377 0.544-0.815 0.26-1.152-0.304-0.36-0.795-0.274-1.186 0.057s-0.557 0.8-0.253 1.159zM17.6 14.72c-2.88 0.64-3.552 2.614-4.218 4.269l0.605 0.211 0.304-0.736c0.154 0.054 0.314 0.096 0.429 0.096 3.52 0 4.48-5.44 4.48-5.44-0.32 0.64-2.56 0.72-4.16 1.040s-2.24 1.68-2.24 2.32 0.56 1.2 0.56 1.2c1.040-2.96 4.24-2.96 4.24-2.96z"></path>
</symbol>
<symbol id="icon-delete-close" viewBox="0 0 32 32">
<path d="M31.429 4.16l-3.589-3.589-11.84 11.84-11.84-11.84-3.589 3.589 11.84 11.84-11.84 11.84 3.589 3.589 11.84-11.84 11.84 11.84 3.589-3.589-11.84-11.84 11.84-11.84z"></path>
</symbol>
</defs>
</svg>
