<svg xmlns="http://www.w3.org/2000/svg" width="20" height="20" viewBox="0 0 20 20" fill="none">
<path d="M10.93 2.88995C10.6405 2.45006 10.2514 2.08462 9.79421 1.82328C8.53754 1.10245 6.91837 1.22912 5.42421 2.06578C2.65004 3.61995 0.833374 6.54162 0.833374 9.99995C0.833374 14.6166 4.17504 18.3441 8.53921 19.0499C9.01587 19.1266 9.50337 19.1666 10 19.1666C11.211 19.1709 12.4107 18.9343 13.5294 18.4708C14.6482 18.0072 15.6635 17.3258 16.5165 16.4662C17.3695 15.6066 18.0431 14.586 18.498 13.4638C18.953 12.3415 19.1803 11.14 19.1667 9.92912C19.1475 8.31912 18.5017 6.34328 17.4809 4.76412C16.4642 3.19078 14.9009 1.75745 12.9584 1.77578C12.01 1.77745 11.3625 2.29912 10.93 2.89078V2.88995ZM16.4759 6.34412C16.1278 6.28814 15.7739 6.27889 15.4234 6.31662L14.4567 4.69162L13.025 5.54162L13.7684 6.79162C13.4574 6.93797 13.1603 7.1123 12.8809 7.31245C12.876 7.29631 12.871 7.2802 12.8659 7.26412C12.6434 6.58912 12.2134 6.03495 11.64 5.48412L11.6434 5.46745C11.7009 5.19828 11.7925 4.85078 11.93 4.51328C12.2409 3.74995 12.6017 3.44078 12.9634 3.44078H12.9725C14.0484 3.42912 15.1692 4.25495 16.0817 5.66662C16.2234 5.88578 16.355 6.11162 16.4767 6.34328L16.4759 6.34412ZM11.3417 8.84162C11.0667 8.84828 10.7842 8.87912 10.5084 8.93912C10.2834 8.5626 9.98193 8.23752 9.62337 7.98495C8.96504 7.52245 8.06337 7.29328 7.08837 7.65745C6.99904 7.60598 6.90903 7.5557 6.81837 7.50662L9.51254 4.86578L8.34587 3.67578L5.15004 6.80828C4.47504 6.61245 3.84421 6.54245 3.27754 6.62078C3.92966 5.3118 4.96235 4.23059 6.24004 3.51912C7.37671 2.88245 8.35421 2.91745 8.96587 3.26828C9.54921 3.60245 10.0334 4.36078 9.91171 5.71578L9.87421 6.13495L10.1892 6.41412C10.8742 7.01995 11.1592 7.41162 11.2825 7.78578C11.3692 8.04828 11.3975 8.36578 11.3417 8.84162ZM9.00004 9.67912C8.28837 10.2749 7.81087 11.1108 7.53337 12.0141L5.05504 9.29328L3.82254 10.4166L7.22921 14.1566C7.22504 15.1499 7.35254 16.1666 7.53754 17.0858C6.06261 16.5794 4.78345 15.6235 3.87988 14.3525C2.97631 13.0816 2.49375 11.5594 2.50004 9.99995C2.50004 9.13328 2.74087 8.66078 3.02421 8.45412C3.29171 8.25745 3.87921 8.09662 5.08254 8.54078C5.51754 8.70162 6.02087 8.94828 6.59671 9.30662L7.01504 9.56662L7.44504 9.32495C7.96421 9.03328 8.36087 9.13662 8.66504 9.34995C8.79837 9.44328 8.91254 9.55995 9.00004 9.67912ZM10.4709 17.4849L16.5475 10.7874L15.3134 9.66745L12.87 12.3599L12.8759 11.5149L11.2092 11.5033L11.19 14.2116L9.12087 16.4924C8.96421 15.6416 8.87087 14.7274 8.90087 13.8699C8.95421 12.4074 9.53837 11.2058 10.4025 10.7299C10.7609 10.5324 11.3934 10.4549 11.8934 10.5433L12.635 10.6724L12.8392 9.94828C12.9459 9.57078 13.2284 9.16662 13.67 8.80662C14.1182 8.44443 14.6396 8.18398 15.1984 8.04328C15.8659 7.87995 16.435 7.96495 16.81 8.22328C17.1375 8.44828 17.4667 8.90828 17.4975 9.85161V9.86662L17.5 9.99995C17.5084 11.91 16.7843 13.7506 15.4768 15.1429C14.1692 16.5353 12.3777 17.3734 10.4709 17.4849Z" fill="#6D8434"/>
</svg>